<mxfile host="www.draw.io" modified="2019-12-01T21:21:13.466Z" agent="Mozilla/5.0 (Macintosh; Intel Mac OS X 10_15_1) AppleWebKit/537.36 (KHTML, like Gecko) Chrome/78.0.3904.108 Safari/537.36" etag="kUlzXlSYi2eOGRQFKfMh" version="12.3.3" type="github" pages="1">
  <diagram id="A5NQOXtNuCn2YS7XO_Ea" name="Page-1">
    <mxGraphModel dx="772" dy="457" grid="1" gridSize="10" guides="1" tooltips="1" connect="1" arrows="1" fold="1" page="1" pageScale="1" pageWidth="850" pageHeight="1100" math="0" shadow="0">
      <root>
        <mxCell id="0"/>
        <mxCell id="1" parent="0"/>
        <mxCell id="EKviAfosVV8FFSTH-Syd-3" value="" style="rhombus;whiteSpace=wrap;html=1;fillColor=#f5f5f5;strokeColor=#666666;fontColor=#333333;" vertex="1" parent="1">
          <mxGeometry x="190" y="190" width="60" height="60" as="geometry"/>
        </mxCell>
        <mxCell id="EKviAfosVV8FFSTH-Syd-4" value="" style="rhombus;whiteSpace=wrap;html=1;fillColor=#f5f5f5;strokeColor=#666666;fontColor=#333333;" vertex="1" parent="1">
          <mxGeometry x="220" y="220" width="60" height="60" as="geometry"/>
        </mxCell>
        <mxCell id="EKviAfosVV8FFSTH-Syd-5" value="" style="rhombus;whiteSpace=wrap;html=1;fillColor=#f5f5f5;strokeColor=#666666;fontColor=#333333;" vertex="1" parent="1">
          <mxGeometry x="250" y="250" width="60" height="60" as="geometry"/>
        </mxCell>
        <mxCell id="EKviAfosVV8FFSTH-Syd-6" value="4500" style="rhombus;whiteSpace=wrap;html=1;fillColor=#f5f5f5;strokeColor=#666666;fontColor=#333333;" vertex="1" parent="1">
          <mxGeometry x="280" y="280" width="60" height="60" as="geometry"/>
        </mxCell>
        <mxCell id="EKviAfosVV8FFSTH-Syd-7" value="1500" style="rhombus;whiteSpace=wrap;html=1;fillColor=#f5f5f5;strokeColor=#666666;fontColor=#333333;" vertex="1" parent="1">
          <mxGeometry x="310" y="310" width="60" height="60" as="geometry"/>
        </mxCell>
        <mxCell id="EKviAfosVV8FFSTH-Syd-8" value="0" style="rhombus;whiteSpace=wrap;html=1;fillColor=#f5f5f5;strokeColor=#666666;fontColor=#333333;fontFamily=Times New Roman;fontSize=16;" vertex="1" parent="1">
          <mxGeometry x="340" y="340" width="60" height="60" as="geometry"/>
        </mxCell>
        <mxCell id="EKviAfosVV8FFSTH-Syd-9" value="480" style="rhombus;whiteSpace=wrap;html=1;fillColor=#f5f5f5;strokeColor=#666666;fontColor=#333333;" vertex="1" parent="1">
          <mxGeometry x="160" y="220" width="60" height="60" as="geometry"/>
        </mxCell>
        <mxCell id="EKviAfosVV8FFSTH-Syd-10" value="405" style="rhombus;whiteSpace=wrap;html=1;fillColor=#f5f5f5;strokeColor=#666666;fontColor=#333333;" vertex="1" parent="1">
          <mxGeometry x="190" y="250" width="60" height="60" as="geometry"/>
        </mxCell>
        <mxCell id="EKviAfosVV8FFSTH-Syd-11" value="255" style="rhombus;whiteSpace=wrap;html=1;fillColor=#f5f5f5;strokeColor=#666666;fontColor=#333333;" vertex="1" parent="1">
          <mxGeometry x="220" y="280" width="60" height="60" as="geometry"/>
        </mxCell>
        <mxCell id="EKviAfosVV8FFSTH-Syd-12" value="3000" style="rhombus;whiteSpace=wrap;html=1;fillColor=#f5f5f5;strokeColor=#666666;fontColor=#333333;" vertex="1" parent="1">
          <mxGeometry x="250" y="310" width="60" height="60" as="geometry"/>
        </mxCell>
        <mxCell id="EKviAfosVV8FFSTH-Syd-13" value="0" style="rhombus;whiteSpace=wrap;html=1;fillColor=#f5f5f5;strokeColor=#666666;fontColor=#333333;fontFamily=Times New Roman;fontSize=16;" vertex="1" parent="1">
          <mxGeometry x="280" y="340" width="60" height="60" as="geometry"/>
        </mxCell>
        <mxCell id="EKviAfosVV8FFSTH-Syd-15" value="510" style="rhombus;whiteSpace=wrap;html=1;fillColor=#f5f5f5;strokeColor=#666666;fontColor=#333333;" vertex="1" parent="1">
          <mxGeometry x="130" y="250" width="60" height="60" as="geometry"/>
        </mxCell>
        <mxCell id="EKviAfosVV8FFSTH-Syd-16" value="540" style="rhombus;whiteSpace=wrap;html=1;fillColor=#f5f5f5;strokeColor=#666666;fontColor=#333333;" vertex="1" parent="1">
          <mxGeometry x="160" y="280" width="60" height="60" as="geometry"/>
        </mxCell>
        <mxCell id="EKviAfosVV8FFSTH-Syd-17" value="180" style="rhombus;whiteSpace=wrap;html=1;fillColor=#f5f5f5;strokeColor=#666666;fontColor=#333333;" vertex="1" parent="1">
          <mxGeometry x="190" y="310" width="60" height="60" as="geometry"/>
        </mxCell>
        <mxCell id="EKviAfosVV8FFSTH-Syd-18" value="0" style="rhombus;whiteSpace=wrap;html=1;fillColor=#f5f5f5;strokeColor=#666666;fontColor=#333333;fontFamily=Times New Roman;fontSize=16;" vertex="1" parent="1">
          <mxGeometry x="220" y="340" width="60" height="60" as="geometry"/>
        </mxCell>
        <mxCell id="EKviAfosVV8FFSTH-Syd-22" value="195" style="rhombus;whiteSpace=wrap;html=1;fillColor=#f5f5f5;strokeColor=#666666;fontColor=#333333;" vertex="1" parent="1">
          <mxGeometry x="100" y="280" width="60" height="60" as="geometry"/>
        </mxCell>
        <mxCell id="EKviAfosVV8FFSTH-Syd-23" value="360" style="rhombus;whiteSpace=wrap;html=1;fillColor=#f5f5f5;strokeColor=#666666;fontColor=#333333;" vertex="1" parent="1">
          <mxGeometry x="130" y="310" width="60" height="60" as="geometry"/>
        </mxCell>
        <mxCell id="EKviAfosVV8FFSTH-Syd-24" value="0" style="rhombus;whiteSpace=wrap;html=1;fillColor=#f5f5f5;strokeColor=#666666;fontColor=#333333;fontFamily=Times New Roman;fontSize=16;" vertex="1" parent="1">
          <mxGeometry x="160" y="340" width="60" height="60" as="geometry"/>
        </mxCell>
        <mxCell id="EKviAfosVV8FFSTH-Syd-25" value="150" style="rhombus;whiteSpace=wrap;html=1;fillColor=#f5f5f5;strokeColor=#666666;fontColor=#333333;" vertex="1" parent="1">
          <mxGeometry x="70" y="310" width="60" height="60" as="geometry"/>
        </mxCell>
        <mxCell id="EKviAfosVV8FFSTH-Syd-26" value="0" style="rhombus;whiteSpace=wrap;html=1;fillColor=#f5f5f5;strokeColor=#666666;fontColor=#333333;fontFamily=Times New Roman;fontSize=16;" vertex="1" parent="1">
          <mxGeometry x="100" y="340" width="60" height="60" as="geometry"/>
        </mxCell>
        <mxCell id="EKviAfosVV8FFSTH-Syd-27" value="&lt;font face=&quot;Times New Roman&quot; style=&quot;font-size: 16px;&quot;&gt;0&lt;/font&gt;" style="rhombus;whiteSpace=wrap;html=1;fillColor=#f5f5f5;strokeColor=#666666;fontColor=#333333;fontSize=16;" vertex="1" parent="1">
          <mxGeometry x="40" y="340" width="60" height="60" as="geometry"/>
        </mxCell>
        <mxCell id="EKviAfosVV8FFSTH-Syd-59" value="&lt;font style=&quot;font-size: 19px&quot;&gt;&lt;i&gt;m&lt;/i&gt;&lt;/font&gt;" style="text;html=1;strokeColor=none;fillColor=none;align=center;verticalAlign=middle;whiteSpace=wrap;rounded=0;fontFamily=Times New Roman;fontSize=16;" vertex="1" parent="1">
          <mxGeometry x="200" y="160" width="40" height="20" as="geometry"/>
        </mxCell>
        <mxCell id="EKviAfosVV8FFSTH-Syd-63" value="&lt;font style=&quot;font-size: 19px&quot;&gt;&lt;i&gt;i&lt;/i&gt;&lt;/font&gt;" style="text;html=1;strokeColor=none;fillColor=none;align=center;verticalAlign=middle;whiteSpace=wrap;rounded=0;fontFamily=Times New Roman;fontSize=16;" vertex="1" parent="1">
          <mxGeometry x="320" y="230" width="40" height="20" as="geometry"/>
        </mxCell>
        <mxCell id="EKviAfosVV8FFSTH-Syd-65" value="&lt;font style=&quot;font-size: 19px&quot;&gt;&lt;i&gt;j&lt;/i&gt;&lt;/font&gt;" style="text;html=1;strokeColor=none;fillColor=none;align=center;verticalAlign=middle;whiteSpace=wrap;rounded=0;fontFamily=Times New Roman;fontSize=16;" vertex="1" parent="1">
          <mxGeometry x="80" y="230" width="40" height="20" as="geometry"/>
        </mxCell>
        <mxCell id="EKviAfosVV8FFSTH-Syd-66" value="1" style="text;html=1;strokeColor=none;fillColor=none;align=center;verticalAlign=middle;whiteSpace=wrap;rounded=0;fontFamily=Times New Roman;fontSize=16;" vertex="1" parent="1">
          <mxGeometry x="30" y="340" width="40" height="20" as="geometry"/>
        </mxCell>
        <mxCell id="EKviAfosVV8FFSTH-Syd-67" value="2" style="text;html=1;strokeColor=none;fillColor=none;align=center;verticalAlign=middle;whiteSpace=wrap;rounded=0;fontFamily=Times New Roman;fontSize=16;" vertex="1" parent="1">
          <mxGeometry x="60" y="308" width="40" height="20" as="geometry"/>
        </mxCell>
        <mxCell id="EKviAfosVV8FFSTH-Syd-68" value="3" style="text;html=1;strokeColor=none;fillColor=none;align=center;verticalAlign=middle;whiteSpace=wrap;rounded=0;fontFamily=Times New Roman;fontSize=16;" vertex="1" parent="1">
          <mxGeometry x="90" y="278" width="40" height="20" as="geometry"/>
        </mxCell>
        <mxCell id="EKviAfosVV8FFSTH-Syd-69" value="4" style="text;html=1;strokeColor=none;fillColor=none;align=center;verticalAlign=middle;whiteSpace=wrap;rounded=0;fontFamily=Times New Roman;fontSize=16;" vertex="1" parent="1">
          <mxGeometry x="120" y="248" width="40" height="20" as="geometry"/>
        </mxCell>
        <mxCell id="EKviAfosVV8FFSTH-Syd-70" value="5" style="text;html=1;strokeColor=none;fillColor=none;align=center;verticalAlign=middle;whiteSpace=wrap;rounded=0;fontFamily=Times New Roman;fontSize=16;" vertex="1" parent="1">
          <mxGeometry x="148" y="220" width="40" height="20" as="geometry"/>
        </mxCell>
        <mxCell id="EKviAfosVV8FFSTH-Syd-71" value="6" style="text;html=1;strokeColor=none;fillColor=none;align=center;verticalAlign=middle;whiteSpace=wrap;rounded=0;fontFamily=Times New Roman;fontSize=16;" vertex="1" parent="1">
          <mxGeometry x="180" y="190" width="40" height="20" as="geometry"/>
        </mxCell>
        <mxCell id="EKviAfosVV8FFSTH-Syd-72" value="1" style="text;html=1;strokeColor=none;fillColor=none;align=center;verticalAlign=middle;whiteSpace=wrap;rounded=0;fontFamily=Times New Roman;fontSize=16;" vertex="1" parent="1">
          <mxGeometry x="220" y="190" width="40" height="20" as="geometry"/>
        </mxCell>
        <mxCell id="EKviAfosVV8FFSTH-Syd-73" value="2" style="text;html=1;strokeColor=none;fillColor=none;align=center;verticalAlign=middle;whiteSpace=wrap;rounded=0;fontFamily=Times New Roman;fontSize=16;" vertex="1" parent="1">
          <mxGeometry x="250" y="220" width="40" height="20" as="geometry"/>
        </mxCell>
        <mxCell id="EKviAfosVV8FFSTH-Syd-74" value="3" style="text;html=1;strokeColor=none;fillColor=none;align=center;verticalAlign=middle;whiteSpace=wrap;rounded=0;fontFamily=Times New Roman;fontSize=16;" vertex="1" parent="1">
          <mxGeometry x="280" y="248" width="40" height="20" as="geometry"/>
        </mxCell>
        <mxCell id="EKviAfosVV8FFSTH-Syd-75" value="4" style="text;html=1;strokeColor=none;fillColor=none;align=center;verticalAlign=middle;whiteSpace=wrap;rounded=0;fontFamily=Times New Roman;fontSize=16;" vertex="1" parent="1">
          <mxGeometry x="310" y="278" width="40" height="20" as="geometry"/>
        </mxCell>
        <mxCell id="EKviAfosVV8FFSTH-Syd-76" value="5" style="text;html=1;strokeColor=none;fillColor=none;align=center;verticalAlign=middle;whiteSpace=wrap;rounded=0;fontFamily=Times New Roman;fontSize=16;" vertex="1" parent="1">
          <mxGeometry x="340" y="308" width="40" height="20" as="geometry"/>
        </mxCell>
        <mxCell id="EKviAfosVV8FFSTH-Syd-77" value="6" style="text;html=1;strokeColor=none;fillColor=none;align=center;verticalAlign=middle;whiteSpace=wrap;rounded=0;fontFamily=Times New Roman;fontSize=16;" vertex="1" parent="1">
          <mxGeometry x="370" y="340" width="40" height="20" as="geometry"/>
        </mxCell>
        <mxCell id="EKviAfosVV8FFSTH-Syd-78" value="" style="rhombus;whiteSpace=wrap;html=1;fillColor=#f5f5f5;strokeColor=#666666;fontColor=#333333;" vertex="1" parent="1">
          <mxGeometry x="590" y="190" width="60" height="60" as="geometry"/>
        </mxCell>
        <mxCell id="EKviAfosVV8FFSTH-Syd-79" value="" style="rhombus;whiteSpace=wrap;html=1;fillColor=#f5f5f5;strokeColor=#666666;fontColor=#333333;" vertex="1" parent="1">
          <mxGeometry x="620" y="220" width="60" height="60" as="geometry"/>
        </mxCell>
        <mxCell id="EKviAfosVV8FFSTH-Syd-80" value="" style="rhombus;whiteSpace=wrap;html=1;fillColor=#f5f5f5;strokeColor=#666666;fontColor=#333333;" vertex="1" parent="1">
          <mxGeometry x="650" y="250" width="60" height="60" as="geometry"/>
        </mxCell>
        <mxCell id="EKviAfosVV8FFSTH-Syd-81" value="" style="rhombus;whiteSpace=wrap;html=1;fillColor=#f5f5f5;strokeColor=#666666;fontColor=#333333;" vertex="1" parent="1">
          <mxGeometry x="680" y="280" width="60" height="60" as="geometry"/>
        </mxCell>
        <mxCell id="EKviAfosVV8FFSTH-Syd-82" value="" style="rhombus;whiteSpace=wrap;html=1;fillColor=#f5f5f5;strokeColor=#666666;fontColor=#333333;" vertex="1" parent="1">
          <mxGeometry x="710" y="310" width="60" height="60" as="geometry"/>
        </mxCell>
        <mxCell id="EKviAfosVV8FFSTH-Syd-84" value="" style="rhombus;whiteSpace=wrap;html=1;fillColor=#f5f5f5;strokeColor=#666666;fontColor=#333333;" vertex="1" parent="1">
          <mxGeometry x="560" y="220" width="60" height="60" as="geometry"/>
        </mxCell>
        <mxCell id="EKviAfosVV8FFSTH-Syd-85" value="" style="rhombus;whiteSpace=wrap;html=1;fillColor=#f5f5f5;strokeColor=#666666;fontColor=#333333;" vertex="1" parent="1">
          <mxGeometry x="590" y="250" width="60" height="60" as="geometry"/>
        </mxCell>
        <mxCell id="EKviAfosVV8FFSTH-Syd-86" value="" style="rhombus;whiteSpace=wrap;html=1;fillColor=#f5f5f5;strokeColor=#666666;fontColor=#333333;" vertex="1" parent="1">
          <mxGeometry x="620" y="280" width="60" height="60" as="geometry"/>
        </mxCell>
        <mxCell id="EKviAfosVV8FFSTH-Syd-87" value="" style="rhombus;whiteSpace=wrap;html=1;fillColor=#f5f5f5;strokeColor=#666666;fontColor=#333333;" vertex="1" parent="1">
          <mxGeometry x="650" y="310" width="60" height="60" as="geometry"/>
        </mxCell>
        <mxCell id="EKviAfosVV8FFSTH-Syd-89" value="" style="rhombus;whiteSpace=wrap;html=1;fillColor=#f5f5f5;strokeColor=#666666;fontColor=#333333;" vertex="1" parent="1">
          <mxGeometry x="530" y="250" width="60" height="60" as="geometry"/>
        </mxCell>
        <mxCell id="EKviAfosVV8FFSTH-Syd-90" value="" style="rhombus;whiteSpace=wrap;html=1;fillColor=#f5f5f5;strokeColor=#666666;fontColor=#333333;" vertex="1" parent="1">
          <mxGeometry x="560" y="280" width="60" height="60" as="geometry"/>
        </mxCell>
        <mxCell id="EKviAfosVV8FFSTH-Syd-91" value="" style="rhombus;whiteSpace=wrap;html=1;fillColor=#f5f5f5;strokeColor=#666666;fontColor=#333333;" vertex="1" parent="1">
          <mxGeometry x="590" y="310" width="60" height="60" as="geometry"/>
        </mxCell>
        <mxCell id="EKviAfosVV8FFSTH-Syd-93" value="" style="rhombus;whiteSpace=wrap;html=1;fillColor=#f5f5f5;strokeColor=#666666;fontColor=#333333;" vertex="1" parent="1">
          <mxGeometry x="500" y="280" width="60" height="60" as="geometry"/>
        </mxCell>
        <mxCell id="EKviAfosVV8FFSTH-Syd-94" value="" style="rhombus;whiteSpace=wrap;html=1;fillColor=#f5f5f5;strokeColor=#666666;fontColor=#333333;" vertex="1" parent="1">
          <mxGeometry x="530" y="310" width="60" height="60" as="geometry"/>
        </mxCell>
        <mxCell id="EKviAfosVV8FFSTH-Syd-96" value="" style="rhombus;whiteSpace=wrap;html=1;fillColor=#f5f5f5;strokeColor=#666666;fontColor=#333333;" vertex="1" parent="1">
          <mxGeometry x="470" y="310" width="60" height="60" as="geometry"/>
        </mxCell>
        <mxCell id="EKviAfosVV8FFSTH-Syd-99" value="&lt;font style=&quot;font-size: 19px&quot;&gt;&lt;i&gt;s&lt;/i&gt;&lt;/font&gt;" style="text;html=1;strokeColor=none;fillColor=none;align=center;verticalAlign=middle;whiteSpace=wrap;rounded=0;fontFamily=Times New Roman;fontSize=16;" vertex="1" parent="1">
          <mxGeometry x="600" y="160" width="40" height="20" as="geometry"/>
        </mxCell>
        <mxCell id="EKviAfosVV8FFSTH-Syd-100" value="&lt;font style=&quot;font-size: 19px&quot;&gt;&lt;i&gt;i&lt;/i&gt;&lt;/font&gt;" style="text;html=1;strokeColor=none;fillColor=none;align=center;verticalAlign=middle;whiteSpace=wrap;rounded=0;fontFamily=Times New Roman;fontSize=16;" vertex="1" parent="1">
          <mxGeometry x="720" y="230" width="40" height="20" as="geometry"/>
        </mxCell>
        <mxCell id="EKviAfosVV8FFSTH-Syd-101" value="&lt;font style=&quot;font-size: 19px&quot;&gt;&lt;i&gt;j&lt;/i&gt;&lt;/font&gt;" style="text;html=1;strokeColor=none;fillColor=none;align=center;verticalAlign=middle;whiteSpace=wrap;rounded=0;fontFamily=Times New Roman;fontSize=16;" vertex="1" parent="1">
          <mxGeometry x="480" y="230" width="40" height="20" as="geometry"/>
        </mxCell>
        <mxCell id="EKviAfosVV8FFSTH-Syd-103" value="2" style="text;html=1;strokeColor=none;fillColor=none;align=center;verticalAlign=middle;whiteSpace=wrap;rounded=0;fontFamily=Times New Roman;fontSize=16;" vertex="1" parent="1">
          <mxGeometry x="460" y="308" width="40" height="20" as="geometry"/>
        </mxCell>
        <mxCell id="EKviAfosVV8FFSTH-Syd-104" value="3" style="text;html=1;strokeColor=none;fillColor=none;align=center;verticalAlign=middle;whiteSpace=wrap;rounded=0;fontFamily=Times New Roman;fontSize=16;" vertex="1" parent="1">
          <mxGeometry x="490" y="278" width="40" height="20" as="geometry"/>
        </mxCell>
        <mxCell id="EKviAfosVV8FFSTH-Syd-105" value="4" style="text;html=1;strokeColor=none;fillColor=none;align=center;verticalAlign=middle;whiteSpace=wrap;rounded=0;fontFamily=Times New Roman;fontSize=16;" vertex="1" parent="1">
          <mxGeometry x="520" y="248" width="40" height="20" as="geometry"/>
        </mxCell>
        <mxCell id="EKviAfosVV8FFSTH-Syd-106" value="5" style="text;html=1;strokeColor=none;fillColor=none;align=center;verticalAlign=middle;whiteSpace=wrap;rounded=0;fontFamily=Times New Roman;fontSize=16;" vertex="1" parent="1">
          <mxGeometry x="548" y="220" width="40" height="20" as="geometry"/>
        </mxCell>
        <mxCell id="EKviAfosVV8FFSTH-Syd-107" value="6" style="text;html=1;strokeColor=none;fillColor=none;align=center;verticalAlign=middle;whiteSpace=wrap;rounded=0;fontFamily=Times New Roman;fontSize=16;" vertex="1" parent="1">
          <mxGeometry x="580" y="190" width="40" height="20" as="geometry"/>
        </mxCell>
        <mxCell id="EKviAfosVV8FFSTH-Syd-108" value="1" style="text;html=1;strokeColor=none;fillColor=none;align=center;verticalAlign=middle;whiteSpace=wrap;rounded=0;fontFamily=Times New Roman;fontSize=16;" vertex="1" parent="1">
          <mxGeometry x="620" y="190" width="40" height="20" as="geometry"/>
        </mxCell>
        <mxCell id="EKviAfosVV8FFSTH-Syd-109" value="2" style="text;html=1;strokeColor=none;fillColor=none;align=center;verticalAlign=middle;whiteSpace=wrap;rounded=0;fontFamily=Times New Roman;fontSize=16;" vertex="1" parent="1">
          <mxGeometry x="650" y="220" width="40" height="20" as="geometry"/>
        </mxCell>
        <mxCell id="EKviAfosVV8FFSTH-Syd-110" value="3" style="text;html=1;strokeColor=none;fillColor=none;align=center;verticalAlign=middle;whiteSpace=wrap;rounded=0;fontFamily=Times New Roman;fontSize=16;" vertex="1" parent="1">
          <mxGeometry x="680" y="248" width="40" height="20" as="geometry"/>
        </mxCell>
        <mxCell id="EKviAfosVV8FFSTH-Syd-111" value="4" style="text;html=1;strokeColor=none;fillColor=none;align=center;verticalAlign=middle;whiteSpace=wrap;rounded=0;fontFamily=Times New Roman;fontSize=16;" vertex="1" parent="1">
          <mxGeometry x="710" y="278" width="40" height="20" as="geometry"/>
        </mxCell>
        <mxCell id="EKviAfosVV8FFSTH-Syd-112" value="5" style="text;html=1;strokeColor=none;fillColor=none;align=center;verticalAlign=middle;whiteSpace=wrap;rounded=0;fontFamily=Times New Roman;fontSize=16;" vertex="1" parent="1">
          <mxGeometry x="740" y="308" width="40" height="20" as="geometry"/>
        </mxCell>
      </root>
    </mxGraphModel>
  </diagram>
</mxfile>
